<mxfile host="Electron" agent="Mozilla/5.0 (Windows NT 10.0; Win64; x64) AppleWebKit/537.36 (KHTML, like Gecko) draw.io/24.7.8 Chrome/128.0.6613.36 Electron/32.0.1 Safari/537.36" version="24.7.8">
  <diagram name="Page-1" id="WmFDA-2u_V0_kMo2dzoh">
    <mxGraphModel dx="756" dy="487" grid="1" gridSize="10" guides="1" tooltips="1" connect="1" arrows="1" fold="1" page="1" pageScale="1" pageWidth="850" pageHeight="1100" math="0" shadow="0">
      <root>
        <mxCell id="0" />
        <mxCell id="1" parent="0" />
        <mxCell id="tBclm0aU3hzZnqp0DCoC-1" value="HTML - WIKI" style="rounded=0;whiteSpace=wrap;html=1;" parent="1" vertex="1">
          <mxGeometry x="40" y="40" width="690" height="60" as="geometry" />
        </mxCell>
        <mxCell id="RnP8Ixojusc7qE8hK7rV-1" value="Languages with , : ; }" style="rounded=0;whiteSpace=wrap;html=1;" vertex="1" parent="1">
          <mxGeometry x="40" y="120" width="120" height="60" as="geometry" />
        </mxCell>
        <mxCell id="RnP8Ixojusc7qE8hK7rV-2" value="Languages with keywords from Join to union" style="rounded=0;whiteSpace=wrap;html=1;" vertex="1" parent="1">
          <mxGeometry x="41" y="199" width="120" height="60" as="geometry" />
        </mxCell>
        <mxCell id="RnP8Ixojusc7qE8hK7rV-3" value="Languages with OS related commands DIR,LS,CR,MV" style="rounded=0;whiteSpace=wrap;html=1;" vertex="1" parent="1">
          <mxGeometry x="41" y="279" width="120" height="60" as="geometry" />
        </mxCell>
        <mxCell id="RnP8Ixojusc7qE8hK7rV-4" value="Languages with tags &amp;lt;INPUT&amp;gt; &amp;lt;/INPUT&amp;gt;" style="rounded=0;whiteSpace=wrap;html=1;" vertex="1" parent="1">
          <mxGeometry x="41" y="358" width="120" height="60" as="geometry" />
        </mxCell>
        <mxCell id="RnP8Ixojusc7qE8hK7rV-7" value="C, C++, JAVA, PYTHON" style="rounded=0;whiteSpace=wrap;html=1;" vertex="1" parent="1">
          <mxGeometry x="240" y="120" width="120" height="60" as="geometry" />
        </mxCell>
        <mxCell id="RnP8Ixojusc7qE8hK7rV-8" value="SQL" style="rounded=0;whiteSpace=wrap;html=1;" vertex="1" parent="1">
          <mxGeometry x="240" y="199" width="120" height="60" as="geometry" />
        </mxCell>
        <mxCell id="RnP8Ixojusc7qE8hK7rV-9" value="Bash, powershell" style="rounded=0;whiteSpace=wrap;html=1;" vertex="1" parent="1">
          <mxGeometry x="240" y="279" width="120" height="60" as="geometry" />
        </mxCell>
        <mxCell id="RnP8Ixojusc7qE8hK7rV-10" value="HTML" style="rounded=0;whiteSpace=wrap;html=1;" vertex="1" parent="1">
          <mxGeometry x="240" y="358" width="120" height="60" as="geometry" />
        </mxCell>
        <mxCell id="RnP8Ixojusc7qE8hK7rV-11" value="MARKUP LANGUAGE" style="rounded=0;whiteSpace=wrap;html=1;" vertex="1" parent="1">
          <mxGeometry x="40" y="480" width="120" height="60" as="geometry" />
        </mxCell>
        <mxCell id="RnP8Ixojusc7qE8hK7rV-12" value="PROGRAMMING LANGUAGE" style="rounded=0;whiteSpace=wrap;html=1;" vertex="1" parent="1">
          <mxGeometry x="200" y="480" width="120" height="60" as="geometry" />
        </mxCell>
        <mxCell id="RnP8Ixojusc7qE8hK7rV-14" value="QUERY LANGUAGE" style="rounded=0;whiteSpace=wrap;html=1;" vertex="1" parent="1">
          <mxGeometry x="520" y="480" width="120" height="60" as="geometry" />
        </mxCell>
        <mxCell id="RnP8Ixojusc7qE8hK7rV-15" value="SCRIPTING LANGUAGE" style="rounded=0;whiteSpace=wrap;html=1;" vertex="1" parent="1">
          <mxGeometry x="360" y="480" width="120" height="60" as="geometry" />
        </mxCell>
        <mxCell id="RnP8Ixojusc7qE8hK7rV-16" value="RETRIVES DATA FROM DATABSE" style="rounded=0;whiteSpace=wrap;html=1;" vertex="1" parent="1">
          <mxGeometry x="520" y="560" width="120" height="60" as="geometry" />
        </mxCell>
        <mxCell id="RnP8Ixojusc7qE8hK7rV-17" value="AUTOMATES TASK" style="rounded=0;whiteSpace=wrap;html=1;" vertex="1" parent="1">
          <mxGeometry x="360" y="560" width="120" height="60" as="geometry" />
        </mxCell>
        <mxCell id="RnP8Ixojusc7qE8hK7rV-18" value="CREATE FULL APPLICATION WITH LOGICAL STRUCTURE" style="rounded=0;whiteSpace=wrap;html=1;" vertex="1" parent="1">
          <mxGeometry x="200" y="560" width="120" height="60" as="geometry" />
        </mxCell>
        <mxCell id="RnP8Ixojusc7qE8hK7rV-19" value="DESCRIBES DATA AND PRESENTATION" style="rounded=0;whiteSpace=wrap;html=1;" vertex="1" parent="1">
          <mxGeometry x="41" y="560" width="120" height="60" as="geometry" />
        </mxCell>
      </root>
    </mxGraphModel>
  </diagram>
</mxfile>
